<?xml version="1.0"?>
<svg version="1.1" xmlns="http://www.w3.org/2000/svg" xmlns:xlink="http://www.w3.org/1999/xlink" width="4000" height="4000">
    <desc iVinci="yes" version="4.6" gridStep="20" showGrid="no" snapToGrid="no" codePlatform="0"/>
    <g id="Layer1" name="Layer 4" opacity="1">
        <g id="Shape1">
            <desc shapeID="1" type="0" basicInfo-basicType="2" basicInfo-roundedRectRadius="300" basicInfo-polygonSides="6" basicInfo-starPoints="5" bounding="rect(-1536.86,-1536.86,3073.73,3073.73)" text="" font-familyName="Helvetica" font-pixelSize="20" font-bold="0" font-underline="0" font-alignment="1" strokeStyle="0" markerStart="0" markerEnd="0" shadowEnabled="0" shadowOffsetX="0" shadowOffsetY="2" shadowBlur="4" shadowOpacity="160" blurEnabled="0" blurRadius="4" transform="matrix(1.11919,0,0,1.11919,1997.03,1999.99)" pers-center="0,0" pers-size="0,0" pers-start="0,0" pers-end="0,0" locked="0" mesh="" flag=""/>
            <path id="shapePath1" d="M276.994,615.711 C276.994,430.278 427.317,279.955 612.75,279.955 L3381.33,279.955 C3566.76,279.955 3717.08,430.278 3717.08,615.711 L3717.08,3384.29 C3717.08,3569.72 3566.76,3720.04 3381.33,3720.04 L612.75,3720.04 C427.317,3720.04 276.994,3569.72 276.994,3384.29 L276.994,615.711 Z" style="stroke:none;fill-rule:evenodd;fill:#e1e1e1;fill-opacity:1;"/>
        </g>
        <g id="Shape2">
            <desc shapeID="2" type="0" basicInfo-basicType="0" basicInfo-roundedRectRadius="300" basicInfo-polygonSides="6" basicInfo-starPoints="5" bounding="rect(-1492.93,-1493.77,2985.86,2987.53)" text="" font-familyName="Helvetica" font-pixelSize="20" font-bold="0" font-underline="0" font-alignment="1" strokeStyle="0" markerStart="0" markerEnd="0" shadowEnabled="0" shadowOffsetX="0" shadowOffsetY="2" shadowBlur="4" shadowOpacity="160" blurEnabled="0" blurRadius="4" transform="matrix(1.11919,0,0,1.11919,1950.83,1951.77)" pers-center="0,0" pers-size="0,0" pers-start="0,0" pers-end="0,0" locked="0" mesh="" flag=""/>
            <path id="shapePath2" d="M279.956,615.711 C279.956,430.279 430.279,279.955 615.711,279.955 L3384.29,279.955 C3477,279.955 3560.94,317.536 3621.7,378.296 L376.435,3623.57 C315.675,3562.81 279.956,3477 279.956,3384.29 L279.956,615.711 Z" style="stroke:none;fill-rule:evenodd;fill:#e1e1e1;fill-opacity:1;"/>
        </g>
        <g id="Shape3">
            <desc shapeID="3" type="0" basicInfo-basicType="2" basicInfo-roundedRectRadius="300" basicInfo-polygonSides="6" basicInfo-starPoints="5" bounding="rect(-1536.87,-1536.87,3073.74,3073.74)" text="" font-familyName="Helvetica" font-pixelSize="20" font-bold="0" font-underline="0" font-alignment="1" strokeStyle="0" markerStart="0" markerEnd="0" shadowEnabled="0" shadowOffsetX="0" shadowOffsetY="2" shadowBlur="4" shadowOpacity="160" blurEnabled="0" blurRadius="4" transform="matrix(1,0,0,1,1997.04,2005.97)" pers-center="0,0" pers-size="0,0" pers-start="0,0" pers-end="0,0" locked="0" mesh="" flag=""/>
            <path id="shapePath3" d="M460.168,769.103 C460.168,603.418 594.482,469.103 760.168,469.103 L3233.91,469.103 C3399.59,469.103 3533.91,603.418 3533.91,769.103 L3533.91,3242.84 C3533.91,3408.53 3399.59,3542.84 3233.91,3542.84 L760.168,3542.84 C594.482,3542.84 460.168,3408.53 460.168,3242.84 L460.168,769.103 Z" style="stroke:none;fill-rule:evenodd;fill:#2a75d0;fill-opacity:1;"/>
        </g>
        <g id="Shape4">
            <desc shapeID="4" type="0" basicInfo-basicType="0" basicInfo-roundedRectRadius="300" basicInfo-polygonSides="6" basicInfo-starPoints="5" bounding="rect(-1492.94,-1495.22,2985.87,2990.44)" text="" font-familyName="Helvetica" font-pixelSize="20" font-bold="0" font-underline="0" font-alignment="1" strokeStyle="0" markerStart="0" markerEnd="0" shadowEnabled="0" shadowOffsetX="0" shadowOffsetY="2" shadowBlur="4" shadowOpacity="160" blurEnabled="0" blurRadius="4" transform="matrix(1,0,0,1,1956.07,1958.35)" pers-center="0,0" pers-size="0,0" pers-start="0,0" pers-end="0,0" locked="0" mesh="" flag=""/>
            <path id="shapePath4" d="M463.129,763.129 C463.129,597.443 597.444,463.129 763.129,463.129 L3236.87,463.129 C3319.71,463.129 3394.71,496.708 3449,550.997 L546.215,3453.57 C492.113,3399.31 463.129,3319.55 463.129,3236.87 L463.129,763.129 Z" style="stroke:none;fill-rule:evenodd;fill:#2a75d0;fill-opacity:1;"/>
        </g>
    </g>
    <g id="Layer2" name="Layer 2" opacity="1">
        <g id="Shape5">
            <desc shapeID="5" type="0" basicInfo-basicType="0" basicInfo-roundedRectRadius="12" basicInfo-polygonSides="6" basicInfo-starPoints="5" bounding="rect(-123.5,-194.5,246.999,389.001)" text="H" font-familyName="OCR A Std" font-pixelSize="500" font-bold="0" font-underline="0" font-alignment="1" strokeStyle="0" markerStart="0" markerEnd="0" shadowEnabled="0" shadowOffsetX="0" shadowOffsetY="2" shadowBlur="4" shadowOpacity="160" blurEnabled="0" blurRadius="4" transform="matrix(4.38215,0,0,4.38215,1356.42,1919.24)" pers-center="0,0" pers-size="0,0" pers-start="0,0" pers-end="0,0" locked="0" mesh="" flag=""/>
            <path id="shapePath5" d="M1678.51,2028.79 L1678.51,2662.01 C1678.51,2732.13 1709.18,2771.57 1788.06,2771.57 C1866.94,2771.57 1897.61,2732.13 1897.61,2662.01 L1897.61,1176.46 C1897.61,1106.35 1866.94,1066.91 1788.06,1066.91 C1709.18,1066.91 1678.51,1106.35 1678.51,1176.46 L1678.51,1809.69 L1034.33,1809.69 L1034.33,1176.46 C1034.33,1106.35 1003.65,1066.91 924.776,1066.91 C845.897,1066.91 815.222,1106.35 815.222,1176.46 L815.222,2662.01 C815.222,2732.13 845.897,2771.57 924.776,2771.57 C1003.65,2771.57 1034.33,2732.13 1034.33,2662.01 L1034.33,2028.79 L1678.51,2028.79 Z" style="stroke:none;fill-rule:evenodd;fill:#ececec;fill-opacity:1;"/>
        </g>
        <g id="Shape6">
            <desc shapeID="6" type="0" basicInfo-basicType="0" basicInfo-roundedRectRadius="12" basicInfo-polygonSides="6" basicInfo-starPoints="5" bounding="rect(-135.76,-171.751,271.521,343.502)" text="&gt;" font-familyName="OCR A Std" font-pixelSize="500" font-bold="0" font-underline="0" font-alignment="1" strokeStyle="0" markerStart="0" markerEnd="0" shadowEnabled="0" shadowOffsetX="0" shadowOffsetY="2" shadowBlur="4" shadowOpacity="160" blurEnabled="0" blurRadius="4" transform="matrix(4.41826,0,0,4.41826,2713.52,2000)" pers-center="0,0" pers-size="0,0" pers-start="0,0" pers-end="0,0" locked="0" mesh="" flag=""/>
            <path id="shapePath6" d="M2186.6,2524.67 C2142.41,2553.39 2115.9,2582.11 2113.7,2637.33 C2113.7,2699.19 2166.71,2758.84 2228.57,2758.84 C2266.13,2758.84 2297.05,2738.95 2323.56,2721.28 L3231.52,2118.19 C3280.12,2087.26 3313.25,2062.96 3313.25,1998.9 C3315.46,1937.04 3280.12,1910.53 3231.52,1879.6 L2321.35,1274.3 C2294.84,1256.63 2263.92,1241.16 2230.78,1241.16 C2166.71,1241.16 2115.9,1298.6 2113.7,1360.46 C2113.7,1417.89 2149.04,1448.82 2191.01,1477.54 L2977.47,1998.9 L2186.6,2524.67 Z" style="stroke:none;fill-rule:evenodd;fill:#ececec;fill-opacity:1;"/>
        </g>
    </g>
</svg>
